# xmcd
#
# Track frame offsets: 
#        150
#        15575
#        30074
#        50630
#        66494
#        84181
#        96257
#        107637
#        118704
#        137241
#        149979
#        163399
#        178644
#        199797
#        211042
#
# Disc length: 2957 seconds
#
# Revision: 0
# Processed by: cddbd v1.5.2PL0 Copyright (c) Steve Scherf et al.
# Submitted via: ExactAudioCopy v1.0b3
#
DISCID=d70b8b0f
DTITLE=Various Artist - American country balladry
DYEAR=2001
DGENRE=Country
TTITLE0=Ready for times to get better
TTITLE1=Elcondor pasa
TTITLE2=Follow me
TTITLE3=Lady
TTITLE4=Sundy come home
TTITLE5=The end of the world
TTITLE6=Rain
TTITLE7=Rhythm of the rain
TTITLE8=Any man of mine
TTITLE9=Blowing in the wind
TTITLE10=All for the love of a girl
TTITLE11=Ready for the time to get better
TTITLE12=Longing in the their hearts
TTITLE13=Let your love flow
TTITLE14=Gone the rainbow
EXTD=
EXTT0=
EXTT1=
EXTT2=
EXTT3=
EXTT4=
EXTT5=
EXTT6=
EXTT7=
EXTT8=
EXTT9=
EXTT10=
EXTT11=
EXTT12=
EXTT13=
EXTT14=
PLAYORDER=
